# Blender 4.5.3 LTS
# www.blender.org
o BulletRosetteAggregate
v 0.000000 0.000000 0.000000
v 5.326007 -3.415789 -0.713017
v 1.683271 -0.853164 -1.199463
v 1.203583 -1.668690 -0.875707
v 1.193240 -1.888443 0.099793
v 2.152616 -0.257392 -0.547718
v 7.895295 -5.960361 -1.771557
v 8.374983 -5.144836 -2.095313
v 7.884953 -6.180115 -0.796057
v 8.354298 -5.584343 -0.144312
v 8.833985 -4.768818 -0.468067
v 8.844328 -4.549064 -1.443568
v 0.000000 0.000000 0.000000
v 4.836402 0.510901 4.109811
v 1.090858 -0.524685 1.880089
v 0.881065 0.444862 2.006445
v 1.309348 1.130024 1.417271
v 1.947423 0.845639 0.701739
v 7.167419 0.117223 7.043746
v 7.805495 -0.167162 6.328215
v 6.957626 1.086769 7.170102
v 7.385909 1.771931 6.580927
v 8.023985 1.487547 5.865396
v 8.233778 0.518000 5.739039
v 0.000000 0.000000 0.000000
v -3.665509 -1.066518 5.095972
v -1.967308 -0.280872 1.025091
v -1.605309 0.544567 1.458228
v -0.697404 -1.214565 1.743118
v -1.513355 -1.160438 1.167536
v -6.210736 -0.795430 7.860920
v -6.572734 -1.620869 7.427783
v -5.394784 -0.849557 8.436502
v -4.940832 -1.729123 8.578946
v -5.302830 -2.554562 8.145809
v -6.118782 -2.500435 7.570228
v 0.000000 0.000000 0.000000
v -1.647470 0.291942 6.143530
v -0.172266 -0.836815 2.066413
v -0.862693 1.020216 1.793020
v 0.091202 0.875046 2.055718
v 0.436415 -0.053469 2.192415
v -3.196079 -0.324844 9.522581
v -2.242184 -0.470013 9.785279
v -3.541292 0.603672 9.385884
v -2.932611 1.387018 9.511886
v -1.978716 1.241848 9.774584
v -1.633502 0.313332 9.911281
v 0.000000 0.000000 0.000000
v 5.682881 -1.841905 2.203315
v 2.194652 0.262427 0.338579
v 1.375397 -1.419533 1.045568
v 8.966471 -2.076288 4.036265
v 8.556843 -2.917268 4.389759
v 9.334749 -2.051783 3.106872
v 9.293400 -2.868258 2.530973
v 8.883772 -3.709238 2.884468
v 8.515493 -3.733743 3.813860
v -0.508470 -0.783753 1.969180
v -1.248137 0.520873 1.710182
v -1.251143 0.520298 1.712608
v -1.793575 0.293966 2.868528
v -1.923665 0.160401 3.610779
v -0.511642 -0.785167 1.972951
v -1.265603 -0.659777 3.469461
v -1.692490 -0.591289 3.915596
v 2.898943 -0.045554 1.205678
v 2.079796 0.254785 0.628432
v 2.075401 0.254198 0.624660
v 3.246069 -0.222222 1.818403
v 2.648924 -0.711885 1.946335
v 1.539850 -0.642957 1.669194
v 1.414431 -0.648764 1.589227
v 1.388144 -0.657183 1.546715
v 2.813021 -1.741618 0.530772
v 3.170554 -1.136625 0.290122
v 2.162774 -0.367020 -0.105400
v 2.664327 -0.719678 -0.039190
v 2.147871 -0.358194 -0.100255
v 2.090119 -1.566867 0.694302
v 1.566771 -1.414296 0.618487
v 1.549130 -1.407972 0.607131
vn -0.2650 -0.2171 -0.9395
vn -0.5479 -0.8148 -0.1894
vn -0.2829 -0.5977 0.7501
vn 0.2829 0.5977 -0.7501
vn -0.0728 0.7617 -0.6439
vn -0.5920 -0.3353 0.7329
vn -0.8352 -0.5346 -0.1293
vn -0.5756 0.0139 -0.8176
vn 0.4518 0.0868 0.8879
vn 0.7270 0.6682 0.1582
vn 0.4692 0.4570 -0.7556
vn -0.0638 -0.3356 -0.9398
vn -0.3390 -0.9170 -0.2102
vn -0.0812 -0.7058 0.7037
vn -0.6157 -0.2314 0.7533
vn -0.4895 0.7240 0.4861
vn 0.1261 0.9553 -0.2672
vn 0.6157 0.2314 -0.7533
vn 0.2631 0.1805 -0.9477
vn -0.1861 0.8448 -0.5017
vn -0.7510 0.6325 0.1896
vn -0.8668 -0.2442 0.4348
vn -0.4176 -0.9086 -0.0113
vn 0.2988 0.9479 -0.1102
vn 0.7750 0.2437 -0.5831
vn 0.6523 -0.6856 -0.3231
vn 0.0534 -0.9107 0.4096
vn -0.4227 -0.2065 0.8824
vn -0.3000 0.7228 0.6225
vn -0.7332 0.5391 -0.4146
vn -0.0531 0.9844 0.1678
vn 0.0531 -0.9844 -0.1678
vn -0.6801 -0.4453 -0.5824
vn -0.3953 -0.3421 -0.8525
vn 0.2775 -0.8368 -0.4720
vn 0.1800 0.9699 -0.1640
vn -0.4441 0.5612 -0.6984
vn 0.5797 -0.5632 0.5888
vn -0.0819 -0.9964 0.0223
vn -0.7950 -0.4720 -0.3809
vn -0.8467 0.4855 -0.2177
vn -0.1851 0.9187 0.3489
vn 0.5281 0.3943 0.7521
vn -0.1521 -0.9883 0.0062
vn 0.1521 0.9883 -0.0062
vn 0.9022 0.3685 0.2244
vn 0.7500 -0.6199 0.2306
vn 0.7911 -0.5871 -0.1718
vn 0.9307 0.3199 -0.1775
vn 0.2424 0.8887 -0.3891
vn 0.0880 0.9720 0.2177
vn 0.8176 0.3690 0.4420
vn 0.6696 -0.5924 0.4481
vn -0.2080 -0.9508 0.2298
vn -0.9376 -0.3478 0.0055
vn -0.7896 0.6136 -0.0006
vn 0.4491 0.4997 -0.7407
vn -0.4491 -0.4997 0.7407
vn -0.7668 -0.3436 0.5422
vn 0.0575 0.5735 -0.8172
vn 0.3906 -0.5119 -0.7651
vn -0.0463 -0.9979 -0.0447
vn -0.2299 -0.5531 0.8007
vn 0.0234 0.3777 0.9256
vn 0.4602 0.8638 0.2052
vn 0.6439 0.4190 -0.6402
vn 0.6801 0.4453 0.5824
vn -0.7500 0.6199 -0.2306
vn 0.7332 -0.5391 0.4146
vn 0.9016 -0.4281 0.0624
vn -0.5855 0.5506 -0.5950
vn -0.0368 -0.9252 -0.3777
vn -0.9022 -0.3685 -0.2244
vn -0.1157 0.9931 -0.0197
vn 0.2604 0.9569 0.1284
vn 0.4895 -0.7240 -0.4861
vn -0.1888 0.4572 0.8691
vn -0.1261 -0.9553 0.2672
vn 0.1704 0.9609 0.2183
vn -0.2604 -0.9569 -0.1284
vn -0.5936 -0.7632 -0.2553
vn 0.2650 0.2171 0.9395
vn 0.1888 -0.4572 -0.8691
vn 0.5479 0.8148 0.1894
vn 0.6154 0.2323 -0.7532
vn 0.7332 -0.5391 0.4145
vt 1.000000 0.750000
vt 0.833333 1.000000
vt 0.833333 0.750000
vt 0.666667 0.750000
vt 0.666667 1.000000
vt 0.500000 0.765973
vt 0.534024 0.750000
vt 0.166667 0.750000
vt -0.000000 1.000000
vt -0.000000 0.750000
vt 0.166667 0.500000
vt 0.536713 0.747890
vt 0.666667 0.500000
vt 0.833333 0.500000
vt 1.000000 0.500000
vt 0.397846 0.335359
vt 0.457846 0.370000
vt 0.250000 0.490000
vt 0.397846 0.164641
vt 0.457846 0.130000
vt 0.250000 0.079282
vt 0.250000 0.010000
vt 0.102154 0.164641
vt 0.042154 0.130000
vt 0.102154 0.335359
vt 0.042154 0.370000
vt 0.250000 0.420718
vt 0.500000 0.750000
vt 0.500000 1.000000
vt 0.333333 0.750000
vt 0.333333 1.000000
vt 0.166667 0.780516
vt 0.231684 0.750182
vt 0.333333 0.500000
vt 0.231664 0.750000
vt 0.500000 0.500000
vt 0.910985 0.750000
vt 1.000000 1.000000
vt 0.760548 0.750118
vt 0.760377 0.750000
vt 0.833333 0.818400
vt 0.883325 0.801398
vt 0.166667 1.000000
vt 0.500000 0.767893
vt 0.538178 0.750000
vt -0.000000 0.754310
vt 0.009330 0.750000
vt 0.016226 0.745533
vt 0.540357 0.748241
vt 0.531746 0.818974
vt 0.666667 0.788915
vt 0.420206 0.750159
vt 0.420320 0.750000
vt 0.606163 0.749614
vt 0.941192 0.749451
vt 0.940704 0.750000
vt 0.696762 0.812155
vt 0.718544 0.749368
vt 0.759008 0.781804
vt 0.111103 0.800671
vt 0.950271 0.788864
vt 0.911838 0.756107
vt 0.243117 0.750000
vt 0.264345 0.767468
vt 0.245291 0.750000
vt 0.457134 0.788371
vt 0.456718 0.789342
vt 0.265394 0.769346
vt 0.666667 0.811574
vt 0.721385 0.789971
vt 0.500000 0.800495
vt 0.606364 0.750000
vt 0.718646 0.750000
vt 0.833333 0.799709
vt -0.000000 0.787850
vt 1.000000 0.754310
vt 0.908312 0.751503
vt 1.000000 0.787850
vt 0.244589 0.750672
vt 0.333333 0.787442
vt 0.333333 0.788416
vt 0.242578 0.750556
s 0
f 3/1/1 7/2/1 4/3/1
f 7/2/2 5/4/2 4/3/2
f 9/5/3 80/6/3 81/7/3
f 6/8/4 8/9/4 3/10/4
f 1/11/5 6/8/5 3/10/5
f 5/4/6 82/12/6 1/13/6
f 1/14/7 4/3/7 5/4/7
f 1/15/8 3/1/8 4/3/8
f 2/16/9 7/17/9 8/18/9
f 2/19/10 9/20/10 7/17/10
f 2/21/11 10/22/11 9/20/11
f 2/23/12 11/24/12 10/22/12
f 2/25/13 12/26/13 11/24/13
f 2/27/14 8/18/14 12/26/14
f 19/2/15 16/4/15 15/3/15
f 21/5/16 17/28/16 16/4/16
f 22/29/17 18/30/17 17/28/17
f 23/31/18 67/32/18 68/33/18
f 13/34/19 18/30/19 69/35/19
f 13/36/20 17/28/20 18/30/20
f 13/13/21 16/4/21 17/28/21
f 13/14/22 15/3/22 16/4/22
f 13/15/23 74/37/23 15/3/23
f 14/16/24 19/17/24 20/18/24
f 14/19/25 21/20/25 19/17/25
f 14/21/26 22/22/26 21/20/26
f 14/23/27 23/24/27 22/22/27
f 14/25/28 24/26/28 23/24/28
f 14/27/29 20/18/29 24/26/29
f 32/38/30 28/3/30 27/1/30
f 28/3/31 33/5/31 61/39/31
f 35/31/32 30/8/32 29/30/32
f 30/8/33 32/9/33 27/10/33
f 25/11/34 30/8/34 27/10/34
f 25/34/35 29/30/35 30/8/35
f 25/14/36 28/3/36 60/40/36
f 25/15/37 27/1/37 28/3/37
f 26/16/38 31/17/38 32/18/38
f 26/19/39 33/20/39 31/17/39
f 26/21/40 34/22/40 33/20/40
f 26/23/41 35/24/41 34/22/41
f 26/25/42 36/26/42 35/24/42
f 26/27/43 32/18/43 36/26/43
f 44/38/44 66/41/44 65/42/44
f 40/28/45 47/31/45 41/30/45
f 41/30/46 48/43/46 42/8/46
f 48/43/47 39/10/47 42/8/47
f 37/11/48 42/8/48 39/10/48
f 37/34/49 41/30/49 42/8/49
f 37/36/50 40/28/50 41/30/50
f 38/16/51 43/17/51 44/18/51
f 38/19/52 45/20/52 43/17/52
f 38/21/53 46/22/53 45/20/53
f 38/23/54 47/24/54 46/22/54
f 38/25/55 48/26/55 47/24/55
f 38/27/56 44/18/56 48/26/56
f 55/5/57 78/44/57 77/45/57
f 58/43/58 72/46/58 73/47/58
f 52/8/59 74/48/59 49/11/59
f 51/4/60 79/49/60 49/13/60
f 50/16/61 53/17/61 54/18/61
f 50/19/62 55/20/62 53/17/62
f 50/21/63 56/22/63 55/20/63
f 50/23/64 57/24/64 56/22/64
f 50/25/65 58/26/65 57/24/65
f 50/27/66 54/18/66 58/26/66
f 66/50/67 33/5/67 34/29/67
f 62/51/68 46/29/68 40/28/68
f 64/52/69 34/29/69 29/30/69
f 59/53/70 29/30/70 25/36/70
f 60/54/71 40/28/71 37/13/71
f 59/55/72 39/1/72 64/56/72
f 63/57/73 43/2/73 45/5/73
f 69/58/74 51/4/74 49/14/74
f 67/59/75 53/2/75 51/4/75
f 70/60/76 24/43/76 20/9/76
f 71/61/77 54/38/77 53/2/77
f 72/62/78 20/38/78 15/3/78
f 79/63/79 6/8/79 1/34/79
f 80/64/80 57/31/80 52/8/80
f 82/65/81 52/8/81 49/34/81
f 75/66/82 10/29/82 11/31/82
f 76/67/83 56/29/83 57/31/83
f 78/68/84 11/31/84 6/8/84
f 3/1/1 8/38/1 7/2/1
f 7/2/2 9/5/2 5/4/2
f 81/7/3 5/4/3 9/5/3
f 9/5/3 10/29/3 80/6/3
f 6/8/4 12/43/4 8/9/4
f 5/4/6 81/7/6 82/12/6
f 19/2/15 21/5/15 16/4/15
f 21/5/16 22/29/16 17/28/16
f 22/29/17 23/31/17 18/30/17
f 69/35/18 18/30/18 23/31/18
f 23/31/18 24/43/18 67/32/18
f 68/33/85 69/35/85 23/31/85
f 32/38/30 31/2/30 28/3/30
f 28/3/31 31/2/31 33/5/31
f 33/5/31 63/69/31 62/70/31
f 61/39/31 60/40/31 28/3/31
f 33/5/31 62/70/31 61/39/31
f 35/31/32 36/43/32 30/8/32
f 30/8/33 36/43/33 32/9/33
f 64/56/44 39/1/44 44/38/44
f 44/38/44 43/2/44 66/41/44
f 65/42/44 64/56/44 44/38/44
f 40/28/45 46/29/45 47/31/45
f 41/30/46 47/31/46 48/43/46
f 48/43/47 44/9/47 39/10/47
f 77/45/57 51/4/57 55/5/57
f 55/5/57 56/29/57 78/44/57
f 73/47/58 52/8/58 58/43/58
f 58/43/58 54/9/58 72/46/58
f 52/8/59 73/47/59 74/48/59
f 51/4/60 77/45/60 79/49/60
f 34/29/67 65/71/67 66/50/67
f 66/50/67 63/69/67 33/5/67
f 40/28/68 61/72/68 62/51/68
f 62/51/68 45/5/68 46/29/68
f 29/30/86 59/53/86 64/52/86
f 64/52/69 65/71/69 34/29/69
f 34/29/69 35/31/69 29/30/69
f 60/54/71 61/72/71 40/28/71
f 59/55/72 37/15/72 39/1/72
f 45/5/73 62/51/73 63/57/73
f 63/57/73 66/41/73 43/2/73
f 69/58/74 68/73/74 51/4/74
f 51/4/75 68/73/75 67/59/75
f 67/59/75 70/74/75 53/2/75
f 53/2/75 55/5/75 51/4/75
f 20/9/76 71/75/76 70/60/76
f 70/60/76 67/32/76 24/43/76
f 53/2/77 70/74/77 71/61/77
f 71/61/77 72/76/77 54/38/77
f 15/3/78 74/37/78 73/77/78
f 72/62/78 71/78/78 20/38/78
f 15/3/78 73/77/78 72/62/78
f 20/38/78 19/2/78 15/3/78
f 52/8/80 82/65/80 81/79/80
f 80/64/80 75/80/80 57/31/80
f 52/8/80 81/79/80 80/64/80
f 57/31/80 58/43/80 52/8/80
f 11/31/82 76/81/82 75/66/82
f 75/66/82 80/6/82 10/29/82
f 57/31/83 75/80/83 76/67/83
f 76/67/83 78/44/83 56/29/83
f 6/8/84 79/63/84 77/82/84
f 78/68/84 76/81/84 11/31/84
f 6/8/84 77/82/84 78/68/84
f 11/31/84 12/43/84 6/8/84
