# Blender 4.5.3 LTS
# www.blender.org
o HexagonalBullet
v 0.000000 -5.000000 0.000000
v 0.000000 2.452373 0.000000
v 0.000000 -4.000000 -1.000000
v 0.866025 -4.000000 -0.500000
v 0.866025 -4.000000 0.500000
v 0.000000 -4.000000 1.000000
v -0.866025 -4.000000 0.500000
v -0.866025 -4.000000 -0.500000
v 0.866025 5.000000 -0.500000
v 0.000000 5.000000 -1.000000
v 0.866025 5.000000 0.500000
v 0.000000 5.000000 1.000000
v -0.866025 5.000000 0.500000
v -0.866025 5.000000 -0.500000
vn 0.5000 -0.0000 -0.8660
vn 1.0000 -0.0000 -0.0000
vn 0.5000 -0.0000 0.8660
vn -0.5000 -0.0000 0.8660
vn -1.0000 -0.0000 -0.0000
vn -0.5000 -0.0000 -0.8660
vn -0.3780 -0.6547 -0.6547
vn -0.7559 -0.6547 -0.0000
vn -0.3780 -0.6547 0.6547
vn 0.3780 -0.6547 0.6547
vn 0.7559 -0.6547 -0.0000
vn 0.3780 -0.6547 -0.6547
vn -0.4734 0.3218 0.8199
vn -0.9468 0.3218 -0.0000
vn -0.4734 0.3218 -0.8199
vn 0.4734 0.3218 -0.8199
vn 0.9468 0.3218 -0.0000
vn 0.4734 0.3218 0.8199
vt 1.000000 1.000000
vt 0.833333 0.750000
vt 1.000000 0.750000
vt 0.833333 1.000000
vt 0.666667 0.750000
vt 0.666667 1.000000
vt 0.500000 0.750000
vt 0.500000 1.000000
vt 0.333333 0.750000
vt 0.333333 1.000000
vt 0.166667 0.750000
vt 0.166667 1.000000
vt -0.000000 0.750000
vt 0.166667 0.500000
vt 0.333333 0.500000
vt 0.500000 0.500000
vt 0.666667 0.500000
vt 0.833333 0.500000
vt 1.000000 0.500000
vt 0.397846 0.335359
vt 0.457846 0.370000
vt 0.250000 0.490000
vt 0.397846 0.164641
vt 0.457846 0.130000
vt 0.250000 0.079282
vt 0.250000 0.010000
vt 0.102154 0.164641
vt 0.042154 0.130000
vt 0.102154 0.335359
vt 0.042154 0.370000
vt 0.250000 0.420718
vt -0.000000 1.000000
s 0
f 10/1/1 4/2/1 3/3/1
f 9/4/2 5/5/2 4/2/2
f 11/6/3 6/7/3 5/5/3
f 12/8/4 7/9/4 6/7/4
f 13/10/5 8/11/5 7/9/5
f 14/12/6 3/13/6 8/11/6
f 1/14/7 8/11/7 3/13/7
f 1/15/8 7/9/8 8/11/8
f 1/16/9 6/7/9 7/9/9
f 1/17/10 5/5/10 6/7/10
f 1/18/11 4/2/11 5/5/11
f 1/19/12 3/3/12 4/2/12
f 2/20/13 9/21/13 10/22/13
f 2/23/14 11/24/14 9/21/14
f 2/25/15 12/26/15 11/24/15
f 2/27/16 13/28/16 12/26/16
f 2/29/17 14/30/17 13/28/17
f 2/31/18 10/22/18 14/30/18
f 10/1/1 9/4/1 4/2/1
f 9/4/2 11/6/2 5/5/2
f 11/6/3 12/8/3 6/7/3
f 12/8/4 13/10/4 7/9/4
f 13/10/5 14/12/5 8/11/5
f 14/12/6 10/32/6 3/13/6
