# Blender 4.5.4 LTS
# www.blender.org
o IndentedColumn
v 0.000000 -5.000000 -2.000000
v 0.000000 -0.000000 0.000000
v 0.000000 0.000000 0.000000
v 1.732051 -5.000000 -1.000000
v 1.732051 -5.000000 1.000000
v 0.000000 -5.000000 2.000000
v -1.732051 -5.000000 1.000000
v -1.732051 -5.000000 -1.000000
v 1.732051 5.000000 -1.000000
v 0.000000 5.000000 -2.000000
v 1.732051 5.000000 1.000000
v 0.000000 5.000000 2.000000
v -1.732051 5.000000 1.000000
v -1.732051 5.000000 -1.000000
vn 0.5000 -0.0000 -0.8660
vn 1.0000 -0.0000 -0.0000
vn 0.5000 -0.0000 0.8660
vn -0.5000 -0.0000 0.8660
vn -1.0000 -0.0000 -0.0000
vn -0.5000 -0.0000 -0.8660
vn -0.4725 0.3273 0.8183
vn -0.9449 0.3273 -0.0000
vn -0.4725 0.3273 -0.8183
vn 0.4725 0.3273 -0.8183
vn 0.9449 0.3273 -0.0000
vn 0.4725 0.3273 0.8183
vn -0.4725 -0.3273 0.8183
vn -0.9449 -0.3273 -0.0000
vn -0.4725 -0.3273 -0.8183
vn 0.4725 -0.3273 -0.8183
vn 0.9449 -0.3273 -0.0000
vn 0.4725 -0.3273 0.8183
vt 1.000000 1.000000
vt 0.833333 0.500000
vt 1.000000 0.500000
vt 0.833333 1.000000
vt 0.666667 0.500000
vt 0.666667 1.000000
vt 0.500000 0.500000
vt 0.500000 1.000000
vt 0.333333 0.500000
vt 0.333333 1.000000
vt 0.166667 0.500000
vt 0.166667 1.000000
vt -0.000000 0.500000
vt 0.250000 0.490000
vt 0.397846 0.335359
vt 0.457846 0.370000
vt 0.457846 0.130000
vt 0.397846 0.164641
vt 0.250000 0.010000
vt 0.250000 0.079282
vt 0.042154 0.130000
vt 0.102154 0.164641
vt 0.102154 0.335359
vt 0.042154 0.370000
vt 0.250000 0.420718
vt 0.750000 0.420718
vt 0.750000 0.490000
vt 0.957846 0.370000
vt 0.897846 0.335359
vt 0.957846 0.130000
vt 0.897846 0.164641
vt 0.750000 0.010000
vt 0.542154 0.130000
vt 0.750000 0.079282
vt 0.602154 0.164641
vt 0.542154 0.370000
vt 0.602154 0.335359
vt -0.000000 1.000000
s 0
f 10/1/1 4/2/1 1/3/1
f 9/4/2 5/5/2 4/2/2
f 11/6/3 6/7/3 5/5/3
f 12/8/4 7/9/4 6/7/4
f 13/10/5 8/11/5 7/9/5
f 14/12/6 1/13/6 8/11/6
f 10/14/7 3/15/7 9/16/7
f 11/17/8 9/16/8 3/18/8
f 12/19/9 11/17/9 3/20/9
f 13/21/10 12/19/10 3/22/10
f 13/21/11 3/23/11 14/24/11
f 14/24/12 3/25/12 10/14/12
f 2/26/13 1/27/13 4/28/13
f 2/29/14 4/28/14 5/30/14
f 2/31/15 5/30/15 6/32/15
f 7/33/16 2/34/16 6/32/16
f 2/35/17 7/33/17 8/36/17
f 8/36/18 1/27/18 2/37/18
f 10/1/1 9/4/1 4/2/1
f 9/4/2 11/6/2 5/5/2
f 11/6/3 12/8/3 6/7/3
f 12/8/4 13/10/4 7/9/4
f 13/10/5 14/12/5 8/11/5
f 14/12/6 10/38/6 1/13/6
