# Blender 4.5.3 LTS
# www.blender.org
o IndentedColumn
v -0.000005 -4.758069 -1.842469
v 0.000000 -2.572565 0.000000
v 0.000000 2.604551 0.000000
v 1.695168 -4.934594 -0.978707
v 1.695575 -4.935315 0.978939
v 0.000003 -4.856723 1.906707
v -1.878710 -5.260074 1.084667
v -1.605418 -4.775431 -0.926883
v 1.841932 5.194862 -1.063444
v -0.000000 5.010199 -2.006641
v 1.783228 5.090755 1.029545
v 0.000006 5.280000 2.182318
v -1.702776 4.948084 0.983097
v -1.876620 5.256368 -1.083461
v 1.641829 0.000000 -0.947911
v 1.566848 0.000000 0.904620
v 0.000000 0.000000 1.891282
v -1.938976 0.000000 1.119468
v -1.004974 0.000000 1.740667
v -1.908682 0.000000 0.000000
v -0.783818 0.000000 -1.357613
v 0.284599 2.500000 -1.492940
v 1.366694 2.500000 1.367184
v -0.246460 2.500000 1.426881
v -1.813002 2.500000 0.500000
v -1.480177 -2.500000 1.563741
v -1.575696 -2.500000 -0.500000
v -0.505025 -2.500000 -1.874729
v 1.333700 -2.500000 -0.500000
v 1.225083 -2.500000 1.121906
v -0.331347 -2.500000 1.573910
v -1.715532 -2.500000 0.500000
v -1.481325 -2.500000 -1.565729
v -0.621056 2.500000 -2.075701
v -1.569768 2.500000 -0.500000
v 2.069420 2.500000 0.500000
v 1.363311 2.500000 -1.361324
vn 0.1626 0.2172 -0.9625
vn 0.9925 -0.1151 0.0402
vn 0.5329 0.0007 0.8462
vn -0.1474 -0.1053 0.9835
vn -0.9962 -0.0824 -0.0270
vn -0.7438 0.2588 -0.6163
vn -0.4160 0.5825 0.6983
vn -0.8138 0.5812 0.0061
vn -0.3980 0.5799 -0.7109
vn 0.3892 0.5822 -0.7138
vn 0.8125 0.5826 0.0186
vn 0.4192 0.5815 0.6972
vn -0.4154 -0.5863 0.6955
vn -0.8124 -0.5830 -0.0000
vn -0.4102 -0.5844 -0.7001
vn 0.4279 -0.5792 -0.6938
vn 0.8136 -0.5806 -0.0293
vn 0.4050 -0.5893 0.6990
vn -0.5532 0.0463 0.8318
vn -0.8531 -0.0920 -0.5136
vn -0.9682 0.0842 -0.2355
vn -0.4925 0.2539 0.8324
vn 0.0363 0.1860 0.9819
vn 0.9080 -0.2383 -0.3445
vn 0.1198 -0.1490 -0.9816
vn 0.0463 -0.2019 -0.9783
vn -0.9988 0.0473 -0.0120
vn -0.9253 -0.0209 0.3787
vn 0.7938 -0.0486 0.6062
vn 0.2645 -0.1645 -0.9503
vn 0.5814 0.2392 -0.7776
vn 0.9804 0.1856 0.0657
vn 0.2747 0.1722 0.9460
vn -0.0087 -0.1698 0.9854
vn -0.9896 0.0389 -0.1384
vn -0.3008 -0.0808 -0.9503
vn 0.8485 -0.1964 -0.4915
vn 0.7609 -0.0482 0.6471
vn 0.6899 -0.0426 -0.7227
vn -0.2978 0.1614 -0.9409
vn -0.9850 -0.1037 -0.1377
vn -0.0088 -0.0689 0.9976
vn 0.2754 -0.1569 0.9484
vn 0.9894 -0.1295 0.0663
vn 0.5851 -0.2123 -0.7826
vn 0.4543 0.0178 -0.8907
vn 0.9941 0.1031 0.0330
vn 0.5028 -0.2679 0.8218
vn -0.5523 -0.1374 0.8222
vn -0.9930 -0.0959 0.0692
vn -0.4240 0.1296 -0.8964
vn -0.8757 -0.1895 0.4441
vn 0.8103 0.0051 0.5859
vn 0.4037 0.0243 0.9146
vn -0.7006 0.0023 0.7136
vn -0.9515 -0.0089 -0.3074
vn -0.9704 -0.0148 -0.2412
vn -0.7309 -0.0129 0.6823
vn 0.0830 -0.1848 0.9793
vn -0.7698 -0.0232 -0.6378
vn -0.9987 0.0436 -0.0270
vn -0.1461 0.1667 0.9751
vn 0.5294 -0.1132 0.8408
vn 0.9923 0.1172 0.0402
vn 0.1653 -0.1236 -0.9785
vn 0.4596 0.0902 -0.8835
vn 0.9892 0.1469 -0.0002
vn 0.4811 0.0415 0.8757
vn -0.4125 0.0703 0.9082
vn -0.9914 0.0317 -0.1271
vn -0.4824 -0.2123 -0.8498
vn -0.5392 0.2281 0.8107
vn 0.1190 -0.1861 -0.9753
vn 0.9275 -0.1258 -0.3519
vn 0.0367 0.1233 0.9917
vn -0.5004 -0.1855 0.8457
vn -0.9677 0.0900 -0.2354
vn -0.8393 -0.2004 -0.5053
vt 0.958333 0.625000
vt 1.000000 0.750000
vt 0.916667 0.750000
vt 0.791667 0.625000
vt 0.833333 0.750000
vt 0.750000 0.750000
vt 0.625000 0.625000
vt 0.666667 0.750000
vt 0.583333 0.750000
vt 0.458333 0.625000
vt 0.500000 0.750000
vt 0.416667 0.750000
vt 0.291667 0.625000
vt 0.333333 0.750000
vt 0.250000 0.750000
vt 0.125000 0.625000
vt 0.166667 0.750000
vt 0.083333 0.750000
vt 0.250000 0.490000
vt 0.397846 0.335359
vt 0.457846 0.370000
vt 0.457846 0.130000
vt 0.397846 0.164641
vt 0.250000 0.010000
vt 0.250000 0.079282
vt 0.042154 0.130000
vt 0.102154 0.164641
vt 0.102154 0.335359
vt 0.042154 0.370000
vt 0.250000 0.420718
vt 0.750000 0.420718
vt 0.750000 0.490000
vt 0.957846 0.370000
vt 0.897846 0.335359
vt 0.957846 0.130000
vt 0.897846 0.164641
vt 0.750000 0.010000
vt 0.542154 0.130000
vt 0.750000 0.079282
vt 0.602154 0.164641
vt 0.542154 0.370000
vt 0.602154 0.335359
vt 0.375000 0.625000
vt 0.041667 0.875000
vt 0.125000 0.875000
vt 0.208333 0.875000
vt 0.291667 0.875000
vt 0.375000 0.875000
vt 0.458333 0.875000
vt 0.541667 0.875000
vt 0.625000 0.875000
vt 0.708333 0.875000
vt 0.791667 0.875000
vt 0.875000 0.875000
vt 0.958333 0.875000
vt 0.166667 1.000000
vt 0.333333 1.000000
vt 0.500000 1.000000
vt 0.666667 1.000000
vt 1.000000 1.000000
vt 0.833333 0.500000
vt 0.875000 0.625000
vt 0.666667 0.500000
vt 0.708333 0.625000
vt 0.500000 0.500000
vt 0.541667 0.625000
vt 0.333333 0.500000
vt 0.166667 0.500000
vt 0.208333 0.625000
vt -0.000000 0.500000
vt 0.041667 0.625000
vt -0.000000 0.750000
vt -0.000000 1.000000
vt 0.833333 1.000000
vt 1.000000 0.500000
s 0
f 28/1/1 21/2/1 15/3/1
f 29/4/2 15/5/2 16/6/2
f 30/7/3 16/8/3 17/9/3
f 31/10/4 17/11/4 19/12/4
f 32/13/5 18/14/5 20/15/5
f 33/16/6 20/17/6 21/18/6
f 10/19/7 3/20/7 9/21/7
f 11/22/8 9/21/8 3/23/8
f 12/24/9 11/22/9 3/25/9
f 13/26/10 12/24/10 3/27/10
f 13/26/11 3/28/11 14/29/11
f 14/29/12 3/30/12 10/19/12
f 2/31/13 1/32/13 4/33/13
f 2/34/14 4/33/14 5/35/14
f 2/36/15 5/35/15 6/37/15
f 7/38/16 2/39/16 6/37/16
f 2/40/17 7/38/17 8/41/17
f 8/41/18 1/32/18 2/42/18
f 18/14/19 26/43/19 19/12/19
f 34/44/20 21/18/20 35/45/20
f 35/46/21 20/15/21 25/47/21
f 25/48/22 19/12/22 24/49/22
f 24/50/23 17/9/23 23/51/23
f 36/52/24 16/6/24 37/53/24
f 37/54/25 15/3/25 22/55/25
f 35/45/26 20/17/26 14/56/26
f 25/47/27 18/14/27 13/57/27
f 24/49/28 17/11/28 12/58/28
f 23/51/29 16/8/29 11/59/29
f 22/55/30 21/2/30 10/60/30
f 4/61/31 28/1/31 29/62/31
f 5/63/32 29/4/32 30/64/32
f 6/65/33 30/7/33 31/66/33
f 7/67/34 31/10/34 26/43/34
f 8/68/35 32/13/35 27/69/35
f 1/70/36 33/16/36 28/71/36
f 21/72/37 34/44/37 10/73/37
f 16/8/38 36/52/38 11/59/38
f 15/5/39 37/54/39 9/74/39
f 21/18/40 28/71/40 33/16/40
f 20/15/41 27/69/41 32/13/41
f 19/12/42 26/43/42 31/10/42
f 17/9/43 31/66/43 30/7/43
f 16/6/44 30/64/44 29/4/44
f 15/3/45 29/62/45 28/1/45
f 37/54/46 10/60/46 9/74/46
f 36/52/47 9/74/47 11/59/47
f 24/50/48 11/59/48 12/58/48
f 25/48/49 12/58/49 13/57/49
f 35/46/50 13/57/50 14/56/50
f 34/44/51 14/56/51 10/73/51
f 28/1/52 1/75/52 21/2/52
f 29/4/53 4/61/53 15/5/53
f 30/7/54 5/63/54 16/8/54
f 31/10/55 6/65/55 17/11/55
f 32/13/56 7/67/56 18/14/56
f 33/16/57 8/68/57 20/17/57
f 18/14/58 7/67/58 26/43/58
f 20/17/59 8/68/59 27/69/59
f 35/45/60 21/18/60 20/17/60
f 25/47/61 20/15/61 18/14/61
f 24/49/62 19/12/62 17/11/62
f 23/51/63 17/9/63 16/8/63
f 37/53/64 16/6/64 15/5/64
f 22/55/65 15/3/65 21/2/65
f 4/61/66 1/75/66 28/1/66
f 5/63/67 4/61/67 29/4/67
f 6/65/68 5/63/68 30/7/68
f 7/67/69 6/65/69 31/10/69
f 8/68/70 7/67/70 32/13/70
f 1/70/71 8/68/71 33/16/71
f 18/14/72 19/12/72 25/48/72
f 37/54/73 22/55/73 10/60/73
f 36/52/74 37/53/74 9/74/74
f 24/50/75 23/51/75 11/59/75
f 25/48/76 24/49/76 12/58/76
f 35/46/77 25/47/77 13/57/77
f 34/44/78 35/45/78 14/56/78
