# Blender 4.5.3 LTS
# www.blender.org
o Cylinder
v -0.000003 -9.831487 -4.781093
v 0.000000 9.993574 -4.991652
v 4.367167 -10.032925 -2.521385
v 4.072925 9.771376 -2.351499
v 4.070248 -9.768996 2.349954
v 4.274368 9.950438 2.467809
v -0.000000 -10.021556 5.028002
v 0.000002 10.104820 5.136166
v -4.193043 -9.878150 2.420857
v -4.430736 10.089431 2.558089
v -4.390525 -10.053688 -2.534872
v -4.501770 10.152570 -2.599095
v 0.000000 0.000000 -5.102009
v 4.470568 -0.000000 -2.581084
v 4.263182 -0.000000 2.461349
v 0.000000 0.000000 4.999814
v -4.497009 -0.000000 2.596349
v -4.380397 0.000000 -2.529024
v 2.309181 -0.000000 -3.999619
v 4.605611 0.000000 0.000000
v 2.023945 -0.000000 3.505576
v -2.364351 -0.000000 4.095176
v 2.165063 9.855874 -1.250000
v -2.165063 10.117390 -1.250000
v 0.000000 10.223363 2.500000
v -4.070509 0.000000 0.000000
v -2.296407 0.000000 -3.977494
v 0.000000 -10.338650 -2.500000
v 2.165063 -10.314784 1.250000
v -2.165063 -10.246432 1.250000
v 0.000000 5.000000 -4.920254
v 4.109952 -5.000000 -2.372882
v 4.398909 -5.000000 2.539711
v 0.000000 -5.000000 4.619621
v -4.316779 -5.000000 2.492294
v -4.579373 -5.000000 -2.643903
v 1.008329 5.000000 -4.246478
v 4.081165 5.000000 -1.250000
v 3.110770 5.000000 2.888013
v -1.137570 5.000000 4.470328
v -4.166901 5.000000 1.250000
v -3.380718 5.000000 -3.355577
v 0.000000 -5.000000 -5.174377
v 4.039403 5.000000 -2.332151
v 4.091393 5.000000 2.362167
v 0.000000 5.000000 5.388459
v -4.301774 5.000000 2.483630
v -4.521339 5.000000 -2.610397
v 3.116764 -5.000000 -2.898394
v 4.537119 -5.000000 1.250000
v 0.899987 -5.000000 4.058823
v -3.264101 -5.000000 3.153588
v -4.347906 -5.000000 -1.250000
v -1.173656 -5.000000 -4.532831
v 1.273612 -5.000000 -4.705961
v 4.454829 -5.000000 -1.250000
v 3.181438 -5.000000 3.010413
v -0.962190 -5.000000 4.166563
v -4.033877 -5.000000 1.250000
v -3.334945 -5.000000 -3.276294
v -1.093588 5.000000 -4.394150
v -4.418330 5.000000 -1.250000
v -3.106318 5.000000 2.880300
v 1.111722 5.000000 4.425558
v 4.515827 5.000000 1.250000
v 3.298901 5.000000 -3.213865
v 0.605681 7.500000 -4.799071
v 4.409770 7.500000 -1.875000
v -0.503543 7.500000 4.622162
v -4.177859 7.500000 1.875000
v -3.668761 7.500000 -2.604482
v 2.862810 -2.500000 -3.708533
v 4.721600 -2.500000 0.625000
v 1.539505 -2.500000 3.916500
v -2.545190 -2.500000 3.158399
v -4.585430 -2.500000 -0.625000
v -1.458641 -2.500000 -3.776441
v 1.766168 -2.500000 -4.309093
v 4.227656 -2.500000 -0.625000
v 2.538467 -2.500000 3.146753
v -1.821077 -2.500000 4.404198
v -4.019670 -2.500000 0.625000
v -2.786656 -2.500000 -3.576631
v -0.349580 7.500000 -4.355490
v -4.654199 7.500000 -1.875000
v -3.851207 7.500000 2.920487
v 4.008480 7.500000 1.875000
v 3.914096 7.500000 -3.029413
v 1.491013 2.500000 -3.832511
v 4.620775 2.500000 -0.625000
v 2.860339 2.500000 3.704252
v -1.677780 2.500000 4.156001
v -4.650452 2.500000 0.625000
v -2.862701 2.500000 -3.708343
v 3.641600 -7.500000 -2.557436
v 4.447361 -7.500000 1.875000
v 0.605440 -7.500000 4.798653
v -3.625964 -7.500000 2.530355
v -4.198474 -7.500000 -1.875000
v -0.715457 -7.500000 -4.989208
v 0.721094 -7.500000 -4.998971
v 4.649736 -7.500000 -1.875000
v 3.746900 -7.500000 2.739821
v -0.649544 -7.500000 4.875043
v -4.555001 -7.500000 1.875000
v -3.883507 -7.500000 -2.976432
v -1.822034 2.500000 -4.405856
v -4.512640 2.500000 -0.625000
v -2.513662 2.500000 3.103790
v 1.786242 2.500000 4.343863
v 4.195971 2.500000 0.625000
v 2.551362 2.500000 -3.169089
v -3.910444 2.500000 -3.023088
v -0.345241 2.500000 4.347974
v 3.664196 2.500000 2.596575
v 4.195103 2.500000 -1.875000
v 0.543778 2.500000 -4.691851
v 2.758025 -7.500000 -3.527040
v 4.391751 -7.500000 0.625000
v 1.523243 -7.500000 3.888335
v -2.791094 -7.500000 3.584317
v -4.540221 -7.500000 -0.625000
v -1.729507 -7.500000 -4.245594
v -0.487939 2.500000 -4.595136
v -4.079443 2.500000 -1.875000
v -3.656077 2.500000 2.582511
v 4.360546 2.500000 1.875000
v 3.974400 2.500000 -3.133863
v 1.670617 7.500000 -4.143593
v 4.378911 7.500000 -0.625000
v 2.649704 7.500000 3.339422
v -1.726304 7.500000 4.240047
v -4.323727 7.500000 0.625000
v -2.745970 7.500000 -3.506159
v -0.415011 -2.500000 -4.468820
v -4.103351 -2.500000 -1.875000
v -3.919090 -2.500000 3.038064
v 0.461925 -2.500000 4.550078
v 3.801124 -2.500000 -2.833740
v -4.067671 -2.500000 1.875000
v -0.549412 -2.500000 4.701609
v 3.696687 -2.500000 2.652850
v 4.163244 -2.500000 -1.875000
v 0.670614 -2.500000 -4.911538
vn 0.3450 0.0337 -0.9380
vn 0.9456 0.1463 -0.2904
vn 0.3605 -0.0194 0.9325
vn -0.4175 0.1991 0.8866
vn 0.0603 0.9982 0.0019
vn -0.9646 0.1461 -0.2197
vn -0.4530 -0.0075 -0.8915
vn 0.0696 -0.9970 -0.0339
vn 0.4676 -0.0224 -0.8837
vn 0.9943 -0.0091 0.1065
vn 0.5197 0.1856 0.8340
vn -0.5272 -0.1329 0.8393
vn 0.0223 0.9990 -0.0381
vn 0.0256 0.9995 -0.0183
vn -0.0296 0.9986 0.0449
vn -0.9816 -0.0994 0.1630
vn -0.4784 0.0721 -0.8752
vn -0.0615 -0.9743 -0.2166
vn 0.2388 -0.9687 0.0670
vn -0.1091 -0.9866 0.1213
vn -0.5564 -0.0367 -0.8301
vn -0.9741 -0.1991 -0.1074
vn -0.7678 0.1960 0.6100
vn 0.4976 -0.2329 0.8356
vn 0.9442 0.0745 0.3209
vn 0.5169 0.2244 -0.8261
vn -0.0647 -0.9978 -0.0128
vn -0.0158 -0.9998 0.0155
vn -0.0157 -0.9975 0.0684
vn -0.5469 0.0045 -0.8372
vn -0.9618 -0.2526 -0.1052
vn 0.0631 0.9961 -0.0612
vn 0.0602 0.9962 -0.0629
vn -0.0304 0.9995 -0.0107
vn -0.6111 -0.2307 0.7572
vn 0.4726 0.0019 0.8813
vn 0.9977 0.0551 -0.0385
vn 0.5550 0.0448 -0.8306
vn 0.7377 0.0632 -0.6722
vn 0.9979 -0.0469 -0.0444
vn 0.6986 0.1261 0.7043
vn -0.7832 -0.0413 0.6204
vn -0.9646 0.0083 -0.2637
vn -0.5909 0.0388 -0.8058
vn 0.0491 0.9988 0.0084
vn 0.0080 0.9999 0.0121
vn 0.0640 0.9969 0.0448
vn 0.0671 -0.9740 -0.2165
vn 0.1759 -0.9686 0.1760
vn -0.1555 -0.9870 0.0412
vn -0.6485 0.0277 -0.7607
vn -0.8817 -0.0172 0.4714
vn -0.0571 0.0247 0.9981
vn 0.9456 0.0389 0.3229
vn 0.9194 0.0982 -0.3809
vn 0.9790 -0.0077 -0.2036
vn 0.9508 -0.0286 -0.3084
vn -0.6143 -0.0271 0.7886
vn -0.9815 0.0041 -0.1914
vn -0.8642 -0.0072 -0.5031
vn -0.1432 0.2716 -0.9517
vn -0.8951 -0.1863 0.4051
vn -0.8392 0.2404 0.4878
vn 0.6066 -0.1104 0.7873
vn 0.9183 -0.1585 -0.3629
vn 0.4675 -0.2292 -0.8537
vn 0.2508 -0.0138 -0.9679
vn 0.7981 -0.0081 -0.6025
vn -0.7868 0.0305 0.6164
vn -0.9602 -0.0203 -0.2787
vn 0.0005 0.0022 -1.0000
vn 0.4329 0.2299 -0.8716
vn 0.9793 -0.1414 0.1451
vn 0.3651 -0.2477 0.8974
vn -0.5276 0.0008 0.8495
vn -0.9871 0.0923 0.1305
vn -0.3280 -0.1901 -0.9254
vn -0.5432 0.1858 -0.8188
vn -0.9330 0.0013 -0.3598
vn -0.0872 0.0232 0.9959
vn 0.5052 -0.0803 0.8593
vn 0.8915 0.0469 0.4506
vn 0.6725 -0.1654 -0.7214
vn -0.7677 -0.2405 -0.5940
vn -0.9866 -0.1585 -0.0379
vn -0.2272 -0.0660 0.9716
vn 0.3922 -0.0184 0.9197
vn 0.9894 -0.1360 -0.0510
vn 0.4809 0.0624 -0.8745
vn -0.5470 -0.0339 -0.8364
vn -0.8491 -0.3048 0.4313
vn -0.1426 0.0151 0.9897
vn 0.7714 -0.3026 0.5598
vn 0.9431 -0.0860 -0.3212
vn 0.6488 0.2601 -0.7151
vn 0.5854 -0.0344 -0.8100
vn 0.9934 0.0518 0.1025
vn 0.4589 0.0076 0.8885
vn -0.5082 0.1754 0.8432
vn -0.9792 0.2027 -0.0058
vn -0.5076 0.0080 -0.8615
vn -0.1403 0.0455 -0.9891
vn -0.9439 -0.0462 -0.3271
vn -0.4151 -0.0171 0.9096
vn 0.0019 -0.0321 0.9995
vn 0.9871 -0.0938 -0.1300
vn 0.0247 -0.0253 -0.9994
vn 0.5232 0.0614 -0.8500
vn 0.9881 0.1517 0.0244
vn 0.7121 -0.2371 0.6608
vn -0.2958 -0.1296 0.9464
vn -0.9853 -0.1265 0.1150
vn -0.6828 -0.2130 -0.6988
vn -0.8499 0.0076 -0.5269
vn -0.8836 0.0244 0.4676
vn -0.7108 -0.0402 0.7022
vn 0.4889 -0.0661 0.8698
vn 0.5876 -0.0759 -0.8056
vn -0.4262 0.3391 -0.8387
vn -0.9742 0.0423 -0.2218
vn -0.4228 -0.1224 0.8979
vn 0.3600 0.0590 0.9311
vn 0.9552 0.0381 -0.2934
vn 0.3452 0.0061 -0.9385
vn -0.4129 0.0501 -0.9094
vn -0.9943 -0.0374 0.1000
vn -0.6265 -0.0761 0.7757
vn 0.6094 -0.0307 0.7923
vn 0.9825 -0.0743 -0.1708
vn 0.4099 -0.0712 -0.9093
vn 0.5471 -0.0757 -0.8336
vn 0.9904 -0.0063 0.1378
vn 0.5702 0.2801 0.7723
vn -0.5641 0.1942 0.8026
vn -0.9888 0.0873 0.1212
vn -0.4378 0.0958 -0.8940
vn -0.4466 -0.1279 -0.8856
vn -0.9950 -0.0904 0.0429
vn -0.5278 -0.1014 0.8433
vn 0.5470 0.0473 0.8358
vn 0.9937 -0.0910 0.0655
vn 0.4564 -0.0625 -0.8876
vn 0.6719 0.0071 -0.7406
vn 0.9395 0.1228 -0.3199
vn 0.8044 0.1100 0.5838
vn -0.1420 -0.0932 0.9855
vn -0.8900 0.0591 0.4521
vn -0.5474 0.0047 -0.8369
vn 0.4814 0.0441 -0.8754
vn 0.9934 0.1031 -0.0512
vn 0.3918 0.0507 0.9187
vn -0.2245 -0.1684 0.9598
vn -0.9993 -0.0039 -0.0384
vn -0.7870 0.0994 -0.6089
vn 0.5476 -0.0623 -0.8344
vn 0.9686 -0.2092 0.1347
vn 0.5936 -0.0350 0.8040
vn -0.5750 0.0116 0.8181
vn -0.9896 -0.0779 0.1213
vn -0.4346 -0.1527 -0.8876
vn -0.3319 0.1133 -0.9365
vn -0.9896 -0.0607 0.1308
vn -0.5200 -0.1684 0.8374
vn 0.3714 0.1682 0.9131
vn 0.9761 0.1619 0.1446
vn 0.4444 -0.0433 -0.8948
vn 0.4803 0.0042 -0.8771
vn 0.9289 -0.0487 -0.3671
vn 0.6103 0.0119 0.7921
vn -0.8578 -0.1248 0.4986
vn -0.9078 0.0843 0.4109
vn -0.1476 -0.1283 -0.9807
vn -0.5732 -0.2457 -0.7817
vn -0.9552 0.1393 -0.2611
vn -0.7742 0.1564 0.6133
vn 0.7004 -0.1039 0.7062
vn 0.9840 -0.1727 -0.0438
vn 0.7245 0.1981 -0.6602
vn 0.4071 -0.1379 -0.9029
vn 0.9818 -0.0829 -0.1707
vn 0.6039 0.1373 0.7852
vn -0.6263 -0.0792 0.7755
vn -0.9930 0.0624 0.0999
vn -0.4103 0.1238 -0.9035
vn -0.0388 -0.0811 -0.9960
vn 0.8098 0.0586 -0.5837
vn 0.5284 -0.0701 0.8461
vn 0.0797 0.0808 0.9935
vn -0.8870 -0.0292 0.4608
vn -0.5396 -0.0383 -0.8411
vn 0.1826 0.0383 -0.9824
vn 0.9286 -0.0784 0.3627
vn 0.0399 0.0810 0.9959
vn -0.1182 -0.0175 0.9928
vn -0.9275 -0.0266 0.3729
vn 0.0255 -0.0811 -0.9964
vn -0.6424 -0.0306 -0.7658
vn -0.9255 -0.0294 0.3776
vn 0.3387 0.0303 0.9404
vn 0.9915 0.0804 0.1021
vn 0.5061 0.0313 -0.8619
vn 0.6980 0.0788 -0.7117
vn 0.9982 -0.0498 -0.0329
vn 0.4172 0.0421 0.9078
vn -0.4015 0.0812 0.9123
vn -0.9865 0.1069 0.1239
vn -0.5026 0.0124 -0.8644
vn -0.4333 -0.0326 -0.9007
vn -0.9855 -0.1522 0.0746
vn -0.3146 -0.0438 0.9482
vn 0.6068 -0.3754 0.7006
vn 0.9338 0.0311 0.3564
vn 0.7528 0.1832 -0.6322
vn 0.7583 -0.1396 -0.6368
vn 0.9296 0.1000 0.3548
vn 0.6153 0.3417 0.7104
vn -0.3131 -0.1084 0.9435
vn -0.9943 -0.0750 0.0753
vn -0.4292 0.1415 -0.8921
vn -0.5026 0.0064 -0.8645
vn -0.9915 0.0368 0.1245
vn -0.3929 -0.2199 0.8929
vn 0.4169 0.0577 0.9071
vn 0.9946 0.0986 -0.0327
vn 0.7000 -0.0246 -0.7137
vn 0.5531 -0.0939 -0.8278
vn 0.9895 -0.1396 -0.0382
vn 0.4645 0.1842 0.8662
vn -0.6242 0.1113 0.7733
vn -0.9938 0.0228 -0.1087
vn -0.5375 0.1852 -0.8227
vn 0.5453 0.0816 -0.8343
vn 0.9940 0.0995 -0.0452
vn 0.5277 -0.0482 0.8481
vn -0.5027 0.0360 0.8637
vn -0.9986 -0.0511 0.0131
vn -0.4695 -0.0089 -0.8829
vn -0.5706 -0.0197 -0.8210
vn -0.9850 -0.0605 -0.1618
vn -0.3571 0.0378 0.9333
vn 0.4222 -0.0431 0.9055
vn 0.9893 -0.1366 -0.0518
vn 0.4307 0.0181 -0.9023
vn -0.5699 -0.0549 -0.8199
vn -0.9368 0.3143 -0.1539
vn -0.3508 0.1906 0.9168
vn 0.4221 0.0522 0.9051
vn 0.9909 0.1238 -0.0518
vn 0.4302 0.0543 -0.9011
vn -0.4730 0.1657 -0.8653
vn -0.9773 0.1362 0.1623
vn -0.5293 -0.0997 0.8426
vn 0.5274 -0.0739 0.8464
vn 0.9588 0.2647 0.1028
vn 0.4651 -0.1046 -0.8790
vn -0.8918 -0.0227 -0.4520
vn -0.1925 -0.0744 0.9785
vn 0.2334 0.0216 0.9721
vn 0.9766 -0.0619 0.2061
vn 0.3202 0.0137 -0.9473
vn -0.6927 0.1332 -0.7089
vn -0.9927 -0.0333 0.1158
vn -0.2982 0.0177 0.9543
vn 0.7330 0.0124 0.6801
vn 0.9919 -0.1243 0.0245
vn 0.5214 -0.1033 -0.8471
vn 0.0235 0.3131 -0.9494
vn 0.9731 0.1915 -0.1281
vn 0.0018 -0.3178 0.9482
vn -0.3935 0.3185 0.8624
vn -0.9169 -0.2416 -0.3178
vn -0.1391 -0.1416 -0.9801
vn -0.5071 -0.0481 -0.8606
vn -0.9884 -0.1518 -0.0058
vn -0.5145 -0.0808 0.8537
vn 0.4572 -0.0869 0.8851
vn 0.9855 -0.1359 0.1017
vn 0.5673 -0.2488 -0.7850
vn 0.6804 0.0657 -0.7299
vn 0.8821 0.1524 0.4458
vn 0.5064 0.0434 0.8612
vn -0.0819 -0.3445 0.9352
vn -0.8980 0.2715 -0.3463
vn -0.5360 -0.2446 -0.8080
vn 0.5300 -0.0379 -0.8471
vn 0.9106 0.2739 0.3095
vn 0.4987 0.2235 0.8375
vn -0.7798 0.0906 0.6195
vn -0.9708 0.2145 -0.1070
vn -0.5568 0.0018 -0.8307
vt 0.979167 0.562500
vt 1.000000 0.625000
vt 0.958333 0.625000
vt 0.812500 0.562500
vt 0.833333 0.625000
vt 0.791667 0.625000
vt 0.645833 0.562500
vt 0.666667 0.625000
vt 0.625000 0.625000
vt 0.479167 0.562500
vt 0.500000 0.625000
vt 0.458333 0.625000
vt 0.250000 0.490000
vt 0.146077 0.310000
vt 0.353923 0.310000
vt 0.312500 0.562500
vt 0.333333 0.625000
vt 0.291667 0.625000
vt 0.145833 0.562500
vt 0.166667 0.625000
vt 0.125000 0.625000
vt 0.957846 0.370000
vt 0.853923 0.190000
vt 0.750000 0.370000
vt 0.854167 0.562500
vt 0.875000 0.625000
vt 0.687500 0.562500
vt 0.708333 0.625000
vt 0.520833 0.562500
vt 0.541667 0.625000
vt 0.354167 0.562500
vt 0.375000 0.625000
vt 0.457846 0.370000
vt 0.457846 0.130000
vt 0.042154 0.370000
vt 0.250000 0.010000
vt 0.250000 0.130000
vt 0.042154 0.130000
vt 0.187500 0.562500
vt 0.208333 0.625000
vt -0.000000 0.625000
vt 0.020833 0.562500
vt 0.041667 0.625000
vt 0.750000 0.490000
vt 0.542154 0.370000
vt 0.957846 0.130000
vt 0.542154 0.130000
vt 0.646077 0.190000
vt 0.750000 0.010000
vt 0.062500 0.812500
vt 0.083333 0.750000
vt 0.104167 0.812500
vt 0.229167 0.812500
vt 0.250000 0.750000
vt 0.270833 0.812500
vt 0.395833 0.812500
vt 0.416667 0.750000
vt 0.437500 0.812500
vt 0.562500 0.812500
vt 0.583333 0.750000
vt 0.604167 0.812500
vt 0.729167 0.812500
vt 0.750000 0.750000
vt 0.770833 0.812500
vt 0.895833 0.812500
vt 0.916667 0.750000
vt 0.937500 0.812500
vt 0.145833 0.812500
vt 0.166667 0.875000
vt 0.125000 0.875000
vt 0.312500 0.812500
vt 0.333333 0.875000
vt 0.291667 0.875000
vt 0.479167 0.812500
vt 0.500000 0.875000
vt 0.458333 0.875000
vt 0.645833 0.812500
vt 0.666667 0.875000
vt 0.625000 0.875000
vt 0.812500 0.812500
vt 0.833333 0.875000
vt 0.791667 0.875000
vt 0.979167 0.812500
vt 1.000000 0.875000
vt 0.958333 0.875000
vt 0.895833 0.562500
vt 0.729167 0.562500
vt 0.562500 0.562500
vt 0.395833 0.562500
vt 0.229167 0.562500
vt 0.062500 0.562500
vt 0.020833 0.812500
vt -0.000000 0.875000
vt -0.000000 0.750000
vt 0.187500 0.812500
vt 0.166667 0.750000
vt 0.354167 0.812500
vt 0.333333 0.750000
vt 0.687500 0.812500
vt 0.666667 0.750000
vt 0.854167 0.812500
vt 0.833333 0.750000
vt 0.854167 0.937500
vt 0.833333 1.000000
vt 0.687500 0.937500
vt 0.666667 1.000000
vt 0.354167 0.937500
vt 0.333333 1.000000
vt 0.187500 0.937500
vt 0.166667 1.000000
vt 0.020833 0.937500
vt -0.000000 1.000000
vt 0.104167 0.687500
vt 0.062500 0.687500
vt 0.270833 0.687500
vt 0.229167 0.687500
vt 0.437500 0.687500
vt 0.395833 0.687500
vt 0.604167 0.687500
vt 0.562500 0.687500
vt 0.770833 0.687500
vt 0.729167 0.687500
vt 0.937500 0.687500
vt 0.895833 0.687500
vt 0.979167 0.937500
vt 1.000000 1.000000
vt 0.812500 0.937500
vt 0.479167 0.937500
vt 0.500000 1.000000
vt 0.312500 0.937500
vt 0.145833 0.937500
vt 0.937500 0.937500
vt 0.770833 0.937500
vt 0.604167 0.937500
vt 0.520833 0.937500
vt 0.437500 0.937500
vt 0.270833 0.937500
vt 0.104167 0.937500
vt 0.020833 0.687500
vt 0.187500 0.687500
vt 0.354167 0.687500
vt 0.520833 0.687500
vt 0.687500 0.687500
vt 0.854167 0.687500
vt 0.145833 0.687500
vt 0.312500 0.687500
vt 0.500000 0.750000
vt 0.479167 0.687500
vt 0.645833 0.687500
vt 0.812500 0.687500
vt 1.000000 0.750000
vt 0.979167 0.687500
vt 0.041667 0.875000
vt 0.208333 0.875000
vt 0.375000 0.875000
vt 0.520833 0.812500
vt 0.541667 0.875000
vt 0.708333 0.875000
vt 0.875000 0.875000
vt 0.645833 0.937500
vt 0.166667 0.500000
vt -0.000000 0.500000
vt 0.333333 0.500000
vt 0.500000 0.500000
vt 0.666667 0.500000
vt 0.833333 0.500000
vt 1.000000 0.500000
s 0
f 101/1/1 43/2/1 55/3/1
f 102/4/2 32/5/2 56/6/2
f 103/7/3 33/8/3 57/9/3
f 104/10/4 34/11/4 58/12/4
f 2/13/5 24/14/5 23/15/5
f 105/16/6 35/17/6 59/18/6
f 106/19/7 36/20/7 60/21/7
f 3/22/8 29/23/8 28/24/8
f 32/5/9 95/25/9 49/26/9
f 33/8/10 96/27/10 50/28/10
f 34/11/11 97/29/11 51/30/11
f 35/17/12 98/31/12 52/32/12
f 4/33/13 23/15/13 6/34/13
f 12/35/14 24/14/14 2/13/14
f 8/36/15 25/37/15 10/38/15
f 36/20/16 99/39/16 53/40/16
f 43/41/17 100/42/17 54/43/17
f 1/44/18 28/24/18 11/45/18
f 5/46/19 29/23/19 3/22/19
f 9/47/20 30/48/20 7/49/20
f 107/50/21 27/51/21 94/52/21
f 108/53/22 26/54/22 93/55/22
f 109/56/23 22/57/23 92/58/23
f 110/59/24 21/60/24 91/61/24
f 111/62/25 20/63/25 90/64/25
f 112/65/26 19/66/26 89/67/26
f 28/24/27 30/48/27 11/45/27
f 28/24/28 29/23/28 30/48/28
f 29/23/29 7/49/29 30/48/29
f 113/68/30 48/69/30 42/70/30
f 126/71/31 47/72/31 41/73/31
f 23/15/32 25/37/32 6/34/32
f 23/15/33 24/14/33 25/37/33
f 24/14/34 10/38/34 25/37/34
f 114/74/35 46/75/35 40/76/35
f 115/77/36 45/78/36 39/79/36
f 116/80/37 44/81/37 38/82/37
f 117/83/38 31/84/38 37/85/38
f 118/86/39 49/26/39 95/25/39
f 119/87/40 50/28/40 96/27/40
f 120/88/41 51/30/41 97/29/41
f 121/89/42 52/32/42 98/31/42
f 122/90/43 53/40/43 99/39/43
f 123/91/44 54/43/44 100/42/44
f 4/33/45 2/13/45 23/15/45
f 12/35/46 10/38/46 24/14/46
f 8/36/47 6/34/47 25/37/47
f 1/44/48 3/22/48 28/24/48
f 5/46/49 7/49/49 29/23/49
f 9/47/50 11/45/50 30/48/50
f 124/92/51 31/93/51 13/94/51
f 125/95/52 48/69/52 18/96/52
f 126/97/53 47/72/53 17/98/53
f 127/99/54 45/78/54 15/100/54
f 128/101/55 44/81/55 14/102/55
f 44/81/56 88/103/56 4/104/56
f 45/78/57 87/105/57 6/106/57
f 47/72/58 86/107/58 10/108/58
f 48/69/59 85/109/59 12/110/59
f 31/93/60 84/111/60 2/112/60
f 54/43/61 83/113/61 77/114/61
f 53/40/62 82/115/62 76/116/62
f 52/32/63 81/117/63 75/118/63
f 51/30/64 80/119/64 74/120/64
f 50/28/65 79/121/65 73/122/65
f 49/26/66 78/123/66 72/124/66
f 67/125/67 31/84/67 2/126/67
f 68/127/68 44/81/68 4/104/68
f 69/128/69 46/75/69 8/129/69
f 70/130/70 47/72/70 10/108/70
f 71/131/71 48/69/71 12/110/71
f 129/132/72 4/104/72 88/103/72
f 130/133/73 6/106/73 87/105/73
f 131/134/74 8/129/74 69/135/74
f 132/136/75 10/108/75 86/107/75
f 133/137/76 12/110/76 85/109/76
f 134/138/77 2/112/77 84/111/77
f 135/139/78 54/43/78 77/114/78
f 136/140/79 53/40/79 76/116/79
f 137/141/80 52/32/80 75/118/80
f 138/142/81 51/30/81 74/120/81
f 142/143/82 50/28/82 73/122/82
f 139/144/83 49/26/83 72/124/83
f 18/96/84 83/113/84 136/145/84
f 17/98/85 82/115/85 140/146/85
f 16/147/86 81/117/86 141/148/86
f 15/100/87 80/119/87 142/149/87
f 14/102/88 79/121/88 143/150/88
f 13/151/89 78/123/89 144/152/89
f 27/51/90 113/68/90 94/52/90
f 26/54/91 126/71/91 93/55/91
f 22/57/92 114/74/92 92/58/92
f 21/60/93 115/77/93 91/61/93
f 20/63/94 116/80/94 90/64/94
f 19/66/95 117/83/95 89/67/95
f 118/86/96 101/1/96 55/3/96
f 119/87/97 102/4/97 56/6/97
f 120/88/98 103/7/98 57/9/98
f 121/89/99 104/10/99 58/12/99
f 122/90/100 105/16/100 59/18/100
f 123/91/101 106/19/101 60/21/101
f 124/92/102 107/50/102 61/153/102
f 125/95/103 108/53/103 62/154/103
f 126/97/104 109/56/104 63/155/104
f 114/156/105 110/59/105 64/157/105
f 127/99/106 111/62/106 65/158/106
f 128/101/107 112/65/107 66/159/107
f 129/132/108 67/125/108 2/126/108
f 130/133/109 68/127/109 4/104/109
f 131/134/110 87/160/110 6/106/110
f 132/136/111 69/128/111 8/129/111
f 133/137/112 70/130/112 10/108/112
f 134/138/113 71/131/113 12/110/113
f 43/41/114 135/139/114 13/94/114
f 36/20/115 136/140/115 18/96/115
f 35/17/116 137/141/116 17/98/116
f 34/11/117 138/142/117 16/147/117
f 32/5/118 139/144/118 14/102/118
f 36/20/119 136/145/119 60/21/119
f 35/17/120 140/146/120 59/18/120
f 34/11/121 141/148/121 58/12/121
f 33/8/122 142/149/122 57/9/122
f 32/5/123 143/150/123 56/6/123
f 43/2/124 144/152/124 55/3/124
f 42/70/125 134/138/125 61/153/125
f 41/73/126 133/137/126 62/154/126
f 40/76/127 132/136/127 63/155/127
f 39/79/128 131/134/128 64/157/128
f 38/82/129 130/133/129 65/158/129
f 37/85/130 129/132/130 66/159/130
f 19/66/131 128/101/131 14/102/131
f 20/63/132 127/99/132 15/100/132
f 21/60/133 114/156/133 16/147/133
f 22/57/134 126/97/134 17/98/134
f 26/54/135 125/95/135 18/96/135
f 27/51/136 124/92/136 13/94/136
f 11/161/137 123/91/137 1/162/137
f 9/163/138 122/90/138 11/161/138
f 7/164/139 121/89/139 9/163/139
f 5/165/140 120/88/140 7/164/140
f 3/166/141 119/87/141 5/165/141
f 1/167/142 118/86/142 3/166/142
f 37/85/143 89/67/143 117/83/143
f 38/82/144 90/64/144 116/80/144
f 39/79/145 91/61/145 115/77/145
f 40/76/146 92/58/146 114/74/146
f 41/73/147 93/55/147 126/71/147
f 42/70/148 94/52/148 113/68/148
f 55/3/149 144/152/149 78/123/149
f 56/6/150 143/150/150 79/121/150
f 57/9/151 142/149/151 80/119/151
f 58/12/152 141/148/152 81/117/152
f 59/18/153 140/146/153 82/115/153
f 60/21/154 136/145/154 83/113/154
f 139/144/155 19/66/155 14/102/155
f 142/143/156 20/63/156 15/100/156
f 138/142/157 21/60/157 16/147/157
f 137/141/158 22/57/158 17/98/158
f 136/140/159 26/54/159 18/96/159
f 135/139/160 27/51/160 13/94/160
f 61/153/161 134/138/161 84/111/161
f 62/154/162 133/137/162 85/109/162
f 63/155/163 132/136/163 86/107/163
f 64/157/164 131/134/164 69/135/164
f 65/158/165 130/133/165 87/105/165
f 66/159/166 129/132/166 88/103/166
f 19/66/167 72/124/167 78/123/167
f 20/63/168 73/122/168 79/121/168
f 21/60/169 74/120/169 80/119/169
f 22/57/170 75/118/170 81/117/170
f 26/54/171 76/116/171 82/115/171
f 27/51/172 77/114/172 83/113/172
f 1/162/173 123/91/173 100/42/173
f 11/161/174 122/90/174 99/39/174
f 9/163/175 121/89/175 98/31/175
f 7/164/176 120/88/176 97/29/176
f 5/165/177 119/87/177 96/27/177
f 3/166/178 118/86/178 95/25/178
f 112/65/179 37/85/179 66/159/179
f 111/62/180 38/82/180 65/158/180
f 110/59/181 39/79/181 64/157/181
f 109/56/182 40/76/182 63/155/182
f 108/53/183 41/73/183 62/154/183
f 107/50/184 42/70/184 61/153/184
f 101/1/185 1/167/185 43/2/185
f 102/4/186 3/166/186 32/5/186
f 103/7/187 5/165/187 33/8/187
f 104/10/188 7/164/188 34/11/188
f 105/16/189 9/163/189 35/17/189
f 106/19/190 11/161/190 36/20/190
f 32/5/191 3/166/191 95/25/191
f 33/8/192 5/165/192 96/27/192
f 34/11/193 7/164/193 97/29/193
f 35/17/194 9/163/194 98/31/194
f 36/20/195 11/161/195 99/39/195
f 43/41/196 1/162/196 100/42/196
f 113/68/197 18/96/197 48/69/197
f 114/74/198 16/147/198 46/75/198
f 115/77/199 15/100/199 45/78/199
f 116/80/200 14/102/200 44/81/200
f 117/83/201 13/151/201 31/84/201
f 118/86/202 55/3/202 49/26/202
f 119/87/203 56/6/203 50/28/203
f 120/88/204 57/9/204 51/30/204
f 121/89/205 58/12/205 52/32/205
f 122/90/206 59/18/206 53/40/206
f 123/91/207 60/21/207 54/43/207
f 124/92/208 61/153/208 31/93/208
f 125/95/209 62/154/209 48/69/209
f 126/97/210 63/155/210 47/72/210
f 114/156/211 64/157/211 46/75/211
f 127/99/212 65/158/212 45/78/212
f 128/101/213 66/159/213 44/81/213
f 44/81/214 66/159/214 88/103/214
f 45/78/215 65/158/215 87/105/215
f 46/75/216 64/157/216 69/135/216
f 47/72/217 63/155/217 86/107/217
f 48/69/218 62/154/218 85/109/218
f 31/93/219 61/153/219 84/111/219
f 54/43/220 60/21/220 83/113/220
f 53/40/221 59/18/221 82/115/221
f 52/32/222 58/12/222 81/117/222
f 51/30/223 57/9/223 80/119/223
f 50/28/224 56/6/224 79/121/224
f 49/26/225 55/3/225 78/123/225
f 67/125/226 37/85/226 31/84/226
f 68/127/227 38/82/227 44/81/227
f 87/160/228 39/79/228 45/78/228
f 69/128/229 40/76/229 46/75/229
f 70/130/230 41/73/230 47/72/230
f 71/131/231 42/70/231 48/69/231
f 129/132/232 2/126/232 4/104/232
f 130/133/233 4/104/233 6/106/233
f 131/134/234 6/106/234 8/129/234
f 132/136/235 8/129/235 10/108/235
f 133/137/236 10/108/236 12/110/236
f 134/138/237 12/110/237 2/112/237
f 18/96/238 27/51/238 83/113/238
f 17/98/239 26/54/239 82/115/239
f 16/147/240 22/57/240 81/117/240
f 15/100/241 21/60/241 80/119/241
f 14/102/242 20/63/242 79/121/242
f 13/151/243 19/66/243 78/123/243
f 27/51/244 18/96/244 113/68/244
f 26/54/245 17/98/245 126/71/245
f 22/57/246 16/147/246 114/74/246
f 21/60/247 15/100/247 115/77/247
f 20/63/248 14/102/248 116/80/248
f 19/66/249 13/151/249 117/83/249
f 43/41/250 54/43/250 135/139/250
f 36/20/251 53/40/251 136/140/251
f 35/17/252 52/32/252 137/141/252
f 34/11/253 51/30/253 138/142/253
f 33/8/254 50/28/254 142/143/254
f 32/5/255 49/26/255 139/144/255
f 35/17/256 17/98/256 140/146/256
f 34/11/257 16/147/257 141/148/257
f 33/8/258 15/100/258 142/149/258
f 32/5/259 14/102/259 143/150/259
f 43/2/260 13/151/260 144/152/260
f 42/70/261 71/131/261 134/138/261
f 41/73/262 70/130/262 133/137/262
f 40/76/263 69/128/263 132/136/263
f 39/79/264 87/160/264 131/134/264
f 38/82/265 68/127/265 130/133/265
f 37/85/266 67/125/266 129/132/266
f 19/66/267 112/65/267 128/101/267
f 20/63/268 111/62/268 127/99/268
f 21/60/269 110/59/269 114/156/269
f 22/57/270 109/56/270 126/97/270
f 26/54/271 108/53/271 125/95/271
f 27/51/272 107/50/272 124/92/272
f 11/161/273 106/19/273 123/91/273
f 9/163/274 105/16/274 122/90/274
f 7/164/275 104/10/275 121/89/275
f 5/165/276 103/7/276 120/88/276
f 3/166/277 102/4/277 119/87/277
f 1/167/278 101/1/278 118/86/278
f 139/144/279 72/124/279 19/66/279
f 142/143/280 73/122/280 20/63/280
f 138/142/281 74/120/281 21/60/281
f 137/141/282 75/118/282 22/57/282
f 136/140/283 76/116/283 26/54/283
f 135/139/284 77/114/284 27/51/284
f 112/65/285 89/67/285 37/85/285
f 111/62/286 90/64/286 38/82/286
f 110/59/287 91/61/287 39/79/287
f 109/56/288 92/58/288 40/76/288
f 108/53/289 93/55/289 41/73/289
f 107/50/290 94/52/290 42/70/290
